<svg width="528" height="210" viewBox="0 0 528 210" fill="none" xmlns="http://www.w3.org/2000/svg">
<path d="M0 97.3327V194.666L32.1333 194.399L64.1333 193.999L64.4 178.266L64.6667 162.666H48.4H32V97.3327V31.9993H48.4H64.6667L64.4 16.3993L64.1333 0.666006L32.1333 0.266005L0 -0.000661194V97.3327Z" fill="black"/>
<path d="M130.666 97.3327V194.666L164.799 194.399L198.799 193.999L199.066 178.266L199.333 162.666H181.066H162.666V97.3327V31.9993H181.066H199.333L198.933 15.9993L198.533 -0.000661194H164.533H130.666V97.3327Z" fill="black"/>
<path d="M65.334 97.333V161.333H81.334H97.334V97.333V33.333H81.334H65.334V97.333Z" fill="black"/>
<path d="M292.001 65.3333C290.534 66.8 289.334 68.5333 289.334 69.3333C289.334 71.3333 294.401 76 296.401 76C298.801 76 302.667 71.7333 302.667 69.0667C302.667 66.8 298.534 62.6667 296.267 62.6667C295.334 62.6667 293.467 63.8667 292.001 65.3333Z" fill="black"/>
<path d="M358.401 64.1333C354.934 66.1333 355.334 72.7999 358.801 74.7999C363.334 77.1999 368.001 74.3999 368.001 69.4666C368.001 63.8666 363.201 61.1999 358.401 64.1333Z" fill="black"/>
<path d="M236 93.6V122L250.933 121.333C267.467 120.533 271.867 119.067 277.733 112C289.733 97.7333 282.933 71.4667 266 66.8C263.067 66 255.067 65.3333 248.4 65.3333H236V93.6ZM266.667 79.3333C273.733 86.1333 274.8 97.4667 269.2 105.467C265.867 110.133 260.4 112.267 252.667 111.733L246.267 111.333L246.4 93.3333C246.533 83.4667 246.667 75.0667 246.667 74.8C246.667 74.5333 250.267 74.6667 254.667 74.9333C261.2 75.3333 263.333 76.1333 266.667 79.3333Z" fill="black"/>
<path d="M449.334 93.333V121.333H454.534H459.867L460.001 93.333L460.134 65.333H454.667H449.334V93.333Z" fill="black"/>
<path d="M382.666 73.7327C382.666 77.866 379.066 82.666 375.866 82.666C373.599 82.666 373.199 83.466 373.599 86.9327C373.866 90.666 374.666 91.466 377.733 91.7327L381.333 92.1327V103.333C381.333 109.466 381.733 115.466 382.133 116.666C383.333 119.599 389.733 122.666 394.666 122.666C398.399 122.666 398.666 122.266 398.666 117.999C398.666 114.399 398.133 113.333 396.266 113.333C391.999 113.333 390.666 110.399 390.666 101.066V91.9993H394.666C398.399 91.9993 398.666 91.5993 398.666 87.466C398.666 83.466 398.266 82.7993 395.066 82.3993C391.733 81.9993 391.333 81.466 390.933 76.266C390.533 71.066 390.266 70.666 386.533 70.666C383.333 70.666 382.666 71.1993 382.666 73.7327Z" fill="black"/>
<path d="M414.933 83.5993C411.333 85.3327 406.666 91.066 406.666 93.7327C406.666 94.1327 408.533 94.666 410.799 94.9327C413.866 95.466 415.733 94.7993 418.133 92.3993C419.866 90.7993 422.133 89.3327 423.333 89.3327C427.066 89.3327 430.666 91.9993 430.666 94.666C430.666 97.466 429.199 98.1327 419.466 99.466C411.066 100.666 406.666 104.666 406.666 111.333C406.666 118.266 411.466 122.666 418.933 122.666C422.266 122.666 426.133 121.733 427.999 120.399C430.266 118.799 431.333 118.666 431.733 119.733C431.999 120.666 434.266 121.333 436.799 121.333H441.333L441.199 108.266C441.199 101.199 440.533 93.1993 439.599 90.666C436.799 82.3993 424.533 78.7993 414.933 83.5993ZM430.666 107.333C430.666 114.133 422.533 118.399 418.133 113.866C414.399 110.266 416.266 106.933 422.799 105.333C429.999 103.599 430.666 103.866 430.666 107.333Z" fill="black"/>
<path d="M290.666 102V121.333H295.999H301.333V102V82.6663H295.999H290.666V102Z" fill="black"/>
<path d="M314.534 87.8664C309.734 92.533 309.334 93.5997 309.334 100.133C309.334 104.133 310.134 108.8 311.067 110.666C314.934 118.4 328.001 122.666 334.134 118C335.467 116.933 337.067 116 337.734 116C339.734 116 338.534 122.4 335.867 125.866C332.001 130.8 324.001 130.8 320.134 125.866C317.867 123.066 316.801 122.533 313.334 123.333C308.534 124.4 308.267 126.266 312.267 131.333C318.001 138.666 328.534 140.533 338.134 136C346.934 131.733 348.001 128 348.001 103.466V82.6664H343.334C340.001 82.6664 338.667 83.1997 338.667 84.7997C338.667 86.6664 338.401 86.6664 335.734 84.7997C334.001 83.5997 330.001 82.6664 326.267 82.6664C320.401 82.6664 319.067 83.1997 314.534 87.8664ZM335.334 93.9997C340.801 99.333 339.201 108.133 332.534 110.666C327.601 112.533 322.801 110.933 320.534 106.4C314.934 95.5997 326.934 85.4664 335.334 93.9997Z" fill="black"/>
<path d="M357.334 102.267V122H362.001H366.667V102.267V82.6667H362.001H357.334V102.267Z" fill="black"/>
<path d="M251.866 137.867C238.799 142.533 232.799 151.333 232.666 166C232.666 181.2 239.866 190.8 254.399 194.667C265.599 197.6 279.866 192 284.666 182.667C287.466 177.2 287.199 176.267 282.399 174.933C278.399 173.867 277.733 174.133 275.733 177.467C271.333 184.667 261.066 187.333 253.333 183.333C240.933 176.933 239.333 160.267 250.266 150.667C254.666 146.8 255.733 146.4 262.266 146.933C269.599 147.6 275.999 151.6 275.999 155.733C275.999 157.2 277.066 157.467 280.266 156.8C286.399 155.6 287.199 154.267 284.799 149.6C279.066 138.533 264.533 133.333 251.866 137.867Z" fill="black"/>
<path d="M304.401 154.8C300.134 156 294.668 161.6 294.668 164.8C294.668 165.733 296.401 166.8 298.534 167.333C301.601 168 303.068 167.466 305.868 164.8C309.868 160.666 312.001 160.533 316.134 163.866C318.934 166.133 319.068 166.666 317.334 168.4C316.268 169.466 311.734 170.933 307.334 171.866C295.068 174.133 290.668 180.4 295.334 189.333C298.668 195.733 310.401 197.2 316.668 192C317.868 190.933 318.534 191.2 319.201 192.666C319.601 193.866 321.601 194.666 324.001 194.666H328.001V180.133C328.001 164 326.934 159.733 322.401 156.8C318.268 154.266 309.601 153.2 304.401 154.8ZM317.334 182.266C314.668 187.066 311.734 188.533 307.601 187.466C304.934 186.8 304.001 185.733 304.001 183.333C304.001 179.6 305.468 178.4 312.001 177.333C318.134 176.133 319.868 177.733 317.334 182.266Z" fill="black"/>
<path d="M354.266 154.666C352.133 155.333 349.599 156.533 348.533 157.466C347.066 158.666 346.666 158.533 346.666 156.8C346.666 154.933 345.599 154.533 341.733 154.933L336.666 155.333V174.666V194L341.733 194.4L346.666 194.8V181.466C346.666 169.733 347.066 167.6 349.333 165.333C352.666 162 356.266 161.866 359.066 164.933C360.533 166.666 361.199 170.8 361.599 180.666L361.999 194L367.066 194.4L371.999 194.8V181.466C371.999 169.733 372.399 167.6 374.666 165.333C377.866 162.133 379.733 162 383.733 164.8C386.399 166.666 386.666 167.866 386.666 180.8V194.666H391.999H397.333V180.666C397.333 165.2 395.466 158.533 390.533 155.866C385.866 153.466 377.599 154 373.466 157.066C369.866 159.733 369.599 159.733 367.199 157.333C363.999 154.4 359.066 153.333 354.266 154.666Z" fill="black"/>
<path d="M507.466 154.666C499.066 157.2 495.466 164.666 499.333 171.866C501.066 175.2 502.933 176.4 509.466 178.266C517.999 180.666 520.133 182.666 517.333 186C514.933 188.933 509.866 188.4 507.066 184.933C504.399 181.6 499.066 181.6 497.733 184.8C496.666 187.733 502.399 193.2 507.999 194.666C514.933 196.533 520.799 195.066 524.666 190.4C528.933 185.333 528.933 179.466 524.799 175.333C521.999 172.533 513.999 169.333 509.866 169.333C507.466 169.333 506.399 165.2 508.133 163.2C510.399 160.4 515.599 160.933 517.733 164.133C519.333 166.266 520.399 166.666 523.733 165.733C527.066 164.8 527.466 164.266 526.533 161.733C524.399 156 514.799 152.533 507.466 154.666Z" fill="black"/>
<path d="M405.334 182V209.333H410.667H416.001V200.533C416.001 192.666 416.267 191.866 418.401 192.8C419.601 193.333 423.734 194 427.467 194.4C433.201 194.8 434.801 194.4 438.267 191.466C444.001 186.666 445.734 181.466 445.067 171.866C444.534 164.4 444.001 163.2 439.601 159.2C435.467 155.333 433.734 154.666 428.267 154.666C424.667 154.666 420.667 155.466 419.201 156.666C415.867 159.2 414.667 159.2 414.667 156.666C414.667 155.333 413.201 154.666 410.001 154.666H405.334V182ZM432.134 166.533C438.001 172.4 436.801 182 429.734 185.2C424.934 187.333 422.934 187.066 419.334 183.333C413.734 177.866 415.201 166.666 421.734 164C426.534 162.133 428.001 162.4 432.134 166.533Z" fill="black"/>
<path d="M453.334 168.666C453.334 183.866 455.201 190.799 459.734 193.199C463.734 195.333 473.601 194.933 477.067 192.533C479.734 190.666 480.001 190.666 480.001 192.533C480.001 194.133 481.334 194.666 484.667 194.666H489.334V174.666V154.666H484.001H478.667V168.666C478.667 182.266 478.534 182.666 475.201 184.933C472.001 186.933 471.334 186.933 468.134 185.199C464.801 183.333 464.667 182.799 464.267 168.933L463.867 154.666H458.667H453.334V168.666Z" fill="black"/>
</svg>
