<svg width="654" height="327" viewBox="0 0 654 327" fill="none" xmlns="http://www.w3.org/2000/svg">
<path opacity="0.913" fill-rule="evenodd" clip-rule="evenodd" d="M616.501 30.5C616.342 35.2524 618.342 36.5857 622.501 34.5C627.538 34.5874 632.538 34.254 637.501 33.5C637.501 38.8333 637.501 44.1667 637.501 49.5C636.502 90.9967 636.169 132.663 636.501 174.5C631.27 174.444 626.27 175.111 621.501 176.5C617.834 176.5 614.168 176.5 610.501 176.5C610.501 135.167 610.501 93.8333 610.501 52.5C610.501 49.1667 610.501 45.8333 610.501 42.5C435.098 56.6579 259.764 71.6579 84.5008 87.5C80.8823 88.2436 77.2156 88.577 73.5008 88.5C73.1836 79.5822 73.5169 70.7489 74.5008 62C255.141 46.1084 435.808 30.6084 616.501 15.5C616.501 20.5 616.501 25.5 616.501 30.5Z" fill="#4115C3"/>
<path fill-rule="evenodd" clip-rule="evenodd" d="M80.5 84.5C79.5 84.5 78.5 84.5 77.5 84.5C77.5 78.1667 77.5 71.8333 77.5 65.5C255.968 49.2458 434.634 33.5792 613.5 18.5C613.334 24.1764 613.501 29.8431 614 35.5C614.833 36.3333 615.667 37.1667 616.5 38C622.14 37.8677 627.807 37.701 633.5 37.5C633.5 82.5 633.5 127.5 633.5 172.5C626.809 172.454 620.143 172.788 613.5 173.5C613.667 129.499 613.5 85.4987 613 41.5C612.5 41 612 40.5 611.5 40C587.156 41.1672 562.823 42.8338 538.5 45C385.853 58.4034 233.186 71.57 80.5 84.5Z" fill="#FCFBFE"/>
<path opacity="0.884" fill-rule="evenodd" clip-rule="evenodd" d="M616.501 30.5C618.501 30.5 620.501 30.5 622.501 30.5C622.501 31.8333 622.501 33.1667 622.501 34.5C618.342 36.5857 616.342 35.2524 616.501 30.5Z" fill="#00FE67"/>
<path opacity="0.961" fill-rule="evenodd" clip-rule="evenodd" d="M610.5 52.5C435.172 67.8935 259.839 83.2268 84.5 98.5C84.5 94.8333 84.5 91.1667 84.5 87.5C259.763 71.6579 435.097 56.6579 610.5 42.5C610.5 45.8333 610.5 49.1667 610.5 52.5Z" fill="#09FA69"/>
<path opacity="0.984" fill-rule="evenodd" clip-rule="evenodd" d="M621.5 176.5C626.269 175.111 631.269 174.444 636.5 174.5C636.168 132.663 636.501 90.9967 637.5 49.5C638.93 49.5792 640.264 49.2458 641.5 48.5C642.667 93.8297 642.833 139.163 642 184.5C635.263 185.673 628.43 186.34 621.5 186.5C621.5 183.167 621.5 179.833 621.5 176.5Z" fill="#09F66A"/>
<path fill-rule="evenodd" clip-rule="evenodd" d="M77.5006 65.5C77.5006 71.8333 77.5006 78.1667 77.5006 84.5C78.5006 84.5 79.5006 84.5 80.5006 84.5C79.433 85.4345 78.0996 85.7678 76.5006 85.5C76.1766 78.6457 76.5099 71.979 77.5006 65.5Z" fill="#9A7FE0"/>
<path opacity="0.928" fill-rule="evenodd" clip-rule="evenodd" d="M575.5 93.5C575.5 97.8333 575.5 102.167 575.5 106.5C565.459 106.625 555.459 107.292 545.5 108.5C545.5 133.167 545.5 157.833 545.5 182.5C540.306 182.741 535.306 183.407 530.5 184.5C526.785 184.423 523.119 184.756 519.5 185.5C519.5 163.5 519.5 141.5 519.5 119.5C519.945 116.635 519.278 114.135 517.5 112C510.924 111.159 504.591 111.659 498.5 113.5C494.833 113.5 491.167 113.5 487.5 113.5C487.5 104.833 487.5 96.1667 487.5 87.5C516.848 84.9432 546.182 82.2766 575.5 79.5C575.5 84.1667 575.5 88.8333 575.5 93.5Z" fill="#4115C4"/>
<path fill-rule="evenodd" clip-rule="evenodd" d="M561.501 83.5C565.168 83.5 568.834 83.5 572.501 83.5C572.501 90.1667 572.501 96.8333 572.501 103.5C562.527 104.534 552.527 105.201 542.501 105.5C542.501 130.5 542.501 155.5 542.501 180.5C535.821 180.612 529.154 180.946 522.501 181.5C522.668 158.498 522.501 135.498 522.001 112.5C519.869 109.684 517.036 108.351 513.501 108.5C505.831 109.214 498.164 109.881 490.501 110.5C489.896 103.382 490.563 96.5485 492.501 90C515.688 88.2083 538.688 86.0416 561.501 83.5Z" fill="#FDFCFE"/>
<path opacity="0.89" fill-rule="evenodd" clip-rule="evenodd" d="M453.5 103.5C453.5 105.833 453.5 108.167 453.5 110.5C455.5 110.5 457.5 110.5 459.5 110.5C464.463 109.746 469.463 109.413 474.5 109.5C474.5 113.833 474.5 118.167 474.5 122.5C473.503 144.327 473.169 166.327 473.5 188.5C447.307 190.637 421.307 193.304 395.5 196.5C391.833 196.5 388.167 196.5 384.5 196.5C384.5 163.167 384.5 129.833 384.5 96.5C407.474 94.26 430.474 92.26 453.5 90.5C453.5 94.8333 453.5 99.1667 453.5 103.5ZM447.5 126.5C447.667 139.171 447.5 151.838 447 164.5C437.249 165.855 427.415 166.855 417.5 167.5C417.5 154.5 417.5 141.5 417.5 128.5C427.492 127.723 437.492 127.056 447.5 126.5Z" fill="#4317C4"/>
<path opacity="0.948" fill-rule="evenodd" clip-rule="evenodd" d="M530.5 184.5C535.306 183.407 540.306 182.741 545.5 182.5C545.5 157.833 545.5 133.167 545.5 108.5C555.459 107.292 565.459 106.625 575.5 106.5C575.5 102.167 575.5 97.8333 575.5 93.5C577.262 93.6427 578.929 93.3094 580.5 92.5C581.497 99.8032 581.831 107.137 581.5 114.5C571.585 115.145 561.751 116.145 552 117.5C551.5 142.164 551.333 166.831 551.5 191.5C544.504 191.894 537.504 192.227 530.5 192.5C530.5 189.833 530.5 187.167 530.5 184.5Z" fill="#04FD67"/>
<path fill-rule="evenodd" clip-rule="evenodd" d="M449.5 93.5C450.327 98.9851 450.827 104.652 451 110.5C451.374 111.416 451.874 112.25 452.5 113C458.516 113.499 464.516 113.332 470.5 112.5C470.5 137.167 470.5 161.833 470.5 186.5C442.835 188.881 415.169 191.214 387.5 193.5C387.333 162.165 387.5 130.832 388 99.5C408.589 97.4017 429.089 95.4017 449.5 93.5ZM447.5 126.5C447.667 139.171 447.5 151.838 447 164.5C437.249 165.855 427.415 166.855 417.5 167.5C417.5 154.5 417.5 141.5 417.5 128.5C427.492 127.723 437.492 127.056 447.5 126.5Z" fill="#FCFBFE"/>
<path opacity="0.945" fill-rule="evenodd" clip-rule="evenodd" d="M370.5 111.5C369.503 130.993 369.17 150.66 369.5 170.5C368.209 170.263 367.209 170.596 366.5 171.5C347.104 172.763 327.77 174.597 308.5 177C307.516 185.749 307.183 194.582 307.5 203.5C301.916 203.255 296.583 203.922 291.5 205.5C288.167 205.5 284.833 205.5 281.5 205.5C281.5 172.167 281.5 138.833 281.5 105.5C311.148 102.714 340.815 100.047 370.5 97.5C370.5 102.167 370.5 106.833 370.5 111.5ZM343.5 135.5C343.5 139.5 343.5 143.5 343.5 147.5C333.5 148.167 323.5 148.833 313.5 149.5C313.5 145.5 313.5 141.5 313.5 137.5C323.496 136.773 333.496 136.106 343.5 135.5Z" fill="#471CC4"/>
<path fill-rule="evenodd" clip-rule="evenodd" d="M354.5 101.5C358.833 101.5 363.167 101.5 367.5 101.5C367.5 123.833 367.5 146.167 367.5 168.5C349.839 170 332.173 171.5 314.5 173C311.711 173.241 309.044 173.908 306.5 175C305.874 175.75 305.374 176.584 305 177.5C304.5 185.159 304.334 192.826 304.5 200.5C297.859 201.386 291.192 202.053 284.5 202.5C284.333 171.165 284.5 139.832 285 108.5C308.271 106.243 331.438 103.91 354.5 101.5ZM343.5 135.5C343.5 139.5 343.5 143.5 343.5 147.5C333.5 148.167 323.5 148.833 313.5 149.5C313.5 145.5 313.5 141.5 313.5 137.5C323.496 136.773 333.496 136.106 343.5 135.5Z" fill="#FDFDFE"/>
<path opacity="0.827" fill-rule="evenodd" clip-rule="evenodd" d="M453.5 103.5C455.5 103.5 457.5 103.5 459.5 103.5C459.5 105.833 459.5 108.167 459.5 110.5C457.5 110.5 455.5 110.5 453.5 110.5C453.5 108.167 453.5 105.833 453.5 103.5Z" fill="#00FD67"/>
<path opacity="0.893" fill-rule="evenodd" clip-rule="evenodd" d="M267.5 120.5C266.829 123.758 265.996 127.091 265 130.5C263.581 131.46 262.081 132.293 260.5 133C236.286 134.959 212.286 137.459 188.5 140.5C184.833 140.5 181.167 140.5 177.5 140.5C177.5 131.833 177.5 123.167 177.5 114.5C207.486 111.723 237.486 109.057 267.5 106.5C267.5 111.167 267.5 115.833 267.5 120.5Z" fill="#3F14C3"/>
<path fill-rule="evenodd" clip-rule="evenodd" d="M251.5 110.5C255.5 110.5 259.5 110.5 263.5 110.5C263.666 116.176 263.499 121.843 263 127.5C262.5 128.667 261.667 129.5 260.5 130C233.888 133.051 207.222 135.551 180.5 137.5C180.5 130.833 180.5 124.167 180.5 117.5C204.312 115.215 227.979 112.882 251.5 110.5Z" fill="#FBFAFE"/>
<path opacity="0.934" fill-rule="evenodd" clip-rule="evenodd" d="M291.5 205.5C296.583 203.922 301.916 203.255 307.5 203.5C307.183 194.582 307.516 185.749 308.5 177C327.77 174.597 347.104 172.763 366.5 171.5C367.833 171.5 369.167 171.5 370.5 171.5C370.5 151.5 370.5 131.5 370.5 111.5C372.435 110.85 374.435 110.517 376.5 110.5C376.5 133.5 376.5 156.5 376.5 179.5C356.825 181.167 337.158 183.001 317.5 185C315.667 185.5 314.5 186.667 314 188.5C313.831 196.188 313.331 203.855 312.5 211.5C305.555 212.551 298.555 213.218 291.5 213.5C291.5 210.833 291.5 208.167 291.5 205.5Z" fill="#06FC68"/>
<path fill-rule="evenodd" clip-rule="evenodd" d="M370.5 111.5C370.5 131.5 370.5 151.5 370.5 171.5C369.167 171.5 367.833 171.5 366.5 171.5C367.209 170.596 368.209 170.263 369.5 170.5C369.17 150.66 369.503 130.993 370.5 111.5Z" fill="#2941AA"/>
<path opacity="0.928" fill-rule="evenodd" clip-rule="evenodd" d="M519.5 119.5C512.554 120.525 505.554 121.192 498.5 121.5C498.5 118.833 498.5 116.167 498.5 113.5C504.591 111.659 510.924 111.159 517.5 112C519.278 114.135 519.945 116.635 519.5 119.5Z" fill="#06FB68"/>
<path opacity="0.927" fill-rule="evenodd" clip-rule="evenodd" d="M440.5 114.5C442.857 114.337 445.19 114.503 447.5 115C448.667 115.5 449.5 116.333 450 117.5C450.5 134.497 450.667 151.497 450.5 168.5C436.126 168.958 421.792 169.958 407.5 171.5C407.5 153.5 407.5 135.5 407.5 117.5C418.677 116.848 429.677 115.848 440.5 114.5ZM447.5 126.5C447.667 139.171 447.5 151.838 447 164.5C437.249 165.855 427.415 166.855 417.5 167.5C417.5 154.5 417.5 141.5 417.5 128.5C427.492 127.723 437.492 127.056 447.5 126.5Z" fill="#481FC5"/>
<path opacity="0.882" fill-rule="evenodd" clip-rule="evenodd" d="M163.5 129.5C163.5 133.833 163.5 138.167 163.5 142.5C142.475 143.866 121.475 145.533 100.5 147.5C100.5 151.167 100.5 154.833 100.5 158.5C102.735 158.795 104.735 158.461 106.5 157.5C118.159 156.713 129.826 156.046 141.5 155.5C141.5 159.833 141.5 164.167 141.5 168.5C140.515 172.634 140.182 176.968 140.5 181.5C127.147 182.259 113.814 183.259 100.5 184.5C100.5 188.167 100.5 191.833 100.5 195.5C102.565 195.483 104.565 195.15 106.5 194.5C125.507 192.893 144.507 191.227 163.5 189.5C163.5 194.167 163.5 198.833 163.5 203.5C164.257 209.094 162.257 213.261 157.5 216C132.962 218.014 108.629 220.514 84.5 223.5C80.8333 223.5 77.1667 223.5 73.5 223.5C73.5 190.167 73.5 156.833 73.5 123.5C103.483 120.946 133.483 118.613 163.5 116.5C163.5 120.833 163.5 125.167 163.5 129.5Z" fill="#441AC3"/>
<path opacity="0.922" fill-rule="evenodd" clip-rule="evenodd" d="M447.5 126.5C437.492 127.056 427.492 127.723 417.5 128.5C417.5 141.5 417.5 154.5 417.5 167.5C415.283 168.369 412.95 168.702 410.5 168.5C410.167 152.486 410.501 136.486 411.5 120.5C423.095 118.728 434.762 117.895 446.5 118C447.444 120.719 447.777 123.552 447.5 126.5Z" fill="#0BF76A"/>
<path fill-rule="evenodd" clip-rule="evenodd" d="M152.5 119.5C155.167 119.5 157.833 119.5 160.5 119.5C160.5 126.167 160.5 132.833 160.5 139.5C139.551 141.687 118.551 143.354 97.5 144.5C97.5 150.167 97.5 155.833 97.5 161.5C110.833 160.5 124.167 159.5 137.5 158.5C137.5 165.167 137.5 171.833 137.5 178.5C124.21 179.939 110.877 180.939 97.5 181.5C97.5 187.167 97.5 192.833 97.5 198.5C118.464 196.412 139.464 194.746 160.5 193.5C160.666 198.844 160.499 204.177 160 209.5C159.535 210.931 158.701 212.097 157.5 213C130.888 216.051 104.222 218.551 77.5 220.5C77.5 189.167 77.5 157.833 77.5 126.5C102.672 124.454 127.672 122.121 152.5 119.5Z" fill="#FCFCFE"/>
<path opacity="0.949" fill-rule="evenodd" clip-rule="evenodd" d="M188.5 140.5C212.286 137.459 236.286 134.959 260.5 133C262.081 132.293 263.581 131.46 265 130.5C265.996 127.091 266.829 123.758 267.5 120.5C269.117 119.962 270.784 119.629 272.5 119.5C272.666 125.842 272.5 132.175 272 138.5C271.5 139.667 270.667 140.5 269.5 141C242.549 143.996 215.549 146.496 188.5 148.5C188.5 145.833 188.5 143.167 188.5 140.5Z" fill="#09FA69"/>
<path opacity="0.917" fill-rule="evenodd" clip-rule="evenodd" d="M474.5 122.5C476.5 122.5 478.5 122.5 480.5 122.5C480.5 147.5 480.5 172.5 480.5 197.5C452.162 199.778 423.829 202.112 395.5 204.5C395.5 201.833 395.5 199.167 395.5 196.5C421.307 193.304 447.307 190.637 473.5 188.5C473.169 166.327 473.503 144.327 474.5 122.5Z" fill="#0BF86A"/>
<path opacity="0.928" fill-rule="evenodd" clip-rule="evenodd" d="M343.5 123.5C344.5 123.5 345.5 123.5 346.5 123.5C346.5 132.167 346.5 140.833 346.5 149.5C332.684 151.241 318.684 152.575 304.5 153.5C304.5 144.5 304.5 135.5 304.5 126.5C317.512 125.642 330.512 124.642 343.5 123.5ZM343.5 135.5C343.5 139.5 343.5 143.5 343.5 147.5C333.5 148.167 323.5 148.833 313.5 149.5C313.5 145.5 313.5 141.5 313.5 137.5C323.496 136.773 333.496 136.106 343.5 135.5Z" fill="#3B14C1"/>
<path fill-rule="evenodd" clip-rule="evenodd" d="M343.5 123.5C344.568 122.566 345.901 122.232 347.5 122.5C347.827 131.682 347.493 140.682 346.5 149.5C346.5 140.833 346.5 132.167 346.5 123.5C345.5 123.5 344.5 123.5 343.5 123.5Z" fill="#A086E2"/>
<path opacity="0.917" fill-rule="evenodd" clip-rule="evenodd" d="M39.5 142.5C38.3355 181.665 38.1688 220.998 39 260.5C40.6995 261.406 42.5328 261.739 44.5 261.5C242.146 244.113 439.812 226.779 637.5 209.5C637.5 214.833 637.5 220.167 637.5 225.5C636.503 246.327 636.169 267.327 636.5 288.5C567.293 293.792 498.293 299.792 429.5 306.5C425.821 306.724 422.154 307.058 418.5 307.5C418.5 293.5 418.5 279.5 418.5 265.5C418.789 262.351 418.289 259.351 417 256.5C414.925 255.866 412.759 255.532 410.5 255.5C288.145 266.047 165.812 276.714 43.5 287.5C40.272 288.414 36.9387 288.747 33.5 288.5C33.5 285.167 33.5 281.833 33.5 278.5C35.6587 268.983 32.3254 265.983 23.5 269.5C19.8936 269.211 16.3936 269.544 13 270.5C12.3333 223.5 12.3333 176.5 13 129.5C21.7855 128.413 30.6189 127.413 39.5 126.5C39.5 131.833 39.5 137.167 39.5 142.5Z" fill="#4217C4"/>
<path opacity="0.959" fill-rule="evenodd" clip-rule="evenodd" d="M343.5 135.5C333.496 136.106 323.496 136.773 313.5 137.5C313.5 141.5 313.5 145.5 313.5 149.5C311.735 150.461 309.735 150.795 307.5 150.5C307.187 143.245 307.52 136.079 308.5 129C320.478 127.775 332.478 126.941 344.5 126.5C344.81 129.713 344.477 132.713 343.5 135.5Z" fill="#0BF969"/>
<path opacity="0.945" fill-rule="evenodd" clip-rule="evenodd" d="M163.5 129.5C165.5 129.5 167.5 129.5 169.5 129.5C169.5 136.5 169.5 143.5 169.5 150.5C149.186 152.423 128.852 154.256 108.5 156C107.584 156.278 106.918 156.778 106.5 157.5C104.735 158.461 102.735 158.795 100.5 158.5C100.5 154.833 100.5 151.167 100.5 147.5C121.475 145.533 142.475 143.866 163.5 142.5C163.5 138.167 163.5 133.833 163.5 129.5Z" fill="#08FB68"/>
<path fill-rule="evenodd" clip-rule="evenodd" d="M25.5 130.5C28.8333 130.5 32.1667 130.5 35.5 130.5C35.3333 174.168 35.5 217.835 36 261.5C36.8333 262.333 37.6667 263.167 38.5 264C236.834 247.444 435.167 230.611 633.5 213.5C633.5 237.5 633.5 261.5 633.5 285.5C562.863 291.784 492.196 297.784 421.5 303.5C421.667 288.163 421.5 272.83 421 257.5C419.471 254.066 416.804 252.4 413 252.5C287.557 263.901 162.057 274.567 36.5 284.5C36.666 279.156 36.4994 273.823 36 268.5C35.1667 267.667 34.3333 266.833 33.5 266C27.4839 265.501 21.4839 265.668 15.5 266.5C15.5 221.5 15.5 176.5 15.5 131.5C19.0419 131.813 22.3752 131.479 25.5 130.5Z" fill="#FCFCFE"/>
<path opacity="0.998" fill-rule="evenodd" clip-rule="evenodd" d="M44.4997 261.5C42.5325 261.739 40.6992 261.406 38.9997 260.5C38.1685 220.998 38.3352 181.665 39.4997 142.5C41.1436 142.714 42.6436 142.38 43.9997 141.5C44.4997 181.499 44.6664 221.499 44.4997 261.5Z" fill="#09F56B"/>
<path opacity="0.912" fill-rule="evenodd" clip-rule="evenodd" d="M267.5 157.5C266.504 173.658 266.17 189.991 266.5 206.5C240.307 208.637 214.307 211.304 188.5 214.5C184.833 214.5 181.167 214.5 177.5 214.5C177.5 205.833 177.5 197.167 177.5 188.5C198.146 186.557 218.813 184.724 239.5 183C240.056 182.617 240.389 182.117 240.5 181.5C240.5 178.5 240.5 175.5 240.5 172.5C222.913 173.098 205.58 174.765 188.5 177.5C184.833 177.5 181.167 177.5 177.5 177.5C177.5 168.833 177.5 160.167 177.5 151.5C203.817 149.108 230.15 146.774 256.5 144.5C265.01 144.45 268.677 148.783 267.5 157.5Z" fill="#4116C3"/>
<path fill-rule="evenodd" clip-rule="evenodd" d="M251.499 147.5C255.583 147.043 259.416 147.71 262.999 149.5C263.499 167.83 263.666 186.164 263.499 204.5C235.834 206.881 208.168 209.214 180.499 211.5C179.894 204.382 180.561 197.548 182.499 191C202.863 189.331 223.197 187.498 243.499 185.5C243.499 180.167 243.499 174.833 243.499 169.5C222.481 170.947 201.481 172.613 180.499 174.5C179.894 167.382 180.561 160.548 182.499 154C205.676 152.098 228.676 149.931 251.499 147.5Z" fill="#FCFBFE"/>
<path opacity="0.958" fill-rule="evenodd" clip-rule="evenodd" d="M267.5 157.5C269.39 157.297 270.89 157.963 272 159.5C272.5 178.164 272.667 196.83 272.5 215.5C244.5 217.833 216.5 220.167 188.5 222.5C188.5 219.833 188.5 217.167 188.5 214.5C214.307 211.304 240.307 208.637 266.5 206.5C266.17 189.991 266.504 173.658 267.5 157.5Z" fill="#0AF86A"/>
<path opacity="0.962" fill-rule="evenodd" clip-rule="evenodd" d="M141.5 168.5C143.167 168.5 144.833 168.5 146.5 168.5C146.5 175.5 146.5 182.5 146.5 189.5C133.86 190.776 121.193 191.942 108.5 193C107.584 193.278 106.918 193.778 106.5 194.5C104.565 195.15 102.565 195.483 100.5 195.5C100.5 191.833 100.5 188.167 100.5 184.5C113.814 183.259 127.147 182.259 140.5 181.5C140.182 176.968 140.515 172.634 141.5 168.5Z" fill="#09F969"/>
<path opacity="0.948" fill-rule="evenodd" clip-rule="evenodd" d="M240.5 181.5C223.152 182.653 205.819 183.986 188.5 185.5C188.5 182.833 188.5 180.167 188.5 177.5C205.58 174.765 222.913 173.098 240.5 172.5C240.5 175.5 240.5 178.5 240.5 181.5Z" fill="#0AFA69"/>
<path opacity="0.935" fill-rule="evenodd" clip-rule="evenodd" d="M84.5 223.5C108.629 220.514 132.962 218.014 157.5 216C162.257 213.261 164.257 209.094 163.5 203.5C165.5 203.167 167.5 202.833 169.5 202.5C169.666 208.509 169.499 214.509 169 220.5C168.535 221.931 167.701 223.097 166.5 224C139.22 227.051 111.887 229.551 84.5 231.5C84.5 228.833 84.5 226.167 84.5 223.5Z" fill="#08FA69"/>
<path opacity="0.965" fill-rule="evenodd" clip-rule="evenodd" d="M429.499 306.5C498.292 299.792 567.292 293.792 636.499 288.5C636.168 267.327 636.502 246.327 637.499 225.5C639.143 225.714 640.643 225.38 641.999 224.5C642.499 249.164 642.666 273.831 642.499 298.5C571.6 304.627 500.767 310.961 429.999 317.5C429.5 313.848 429.334 310.182 429.499 306.5Z" fill="#09FA69"/>
<path fill-rule="evenodd" clip-rule="evenodd" d="M581.5 236.5C588.589 236.116 595.589 236.616 602.5 238C605.024 239.883 606.358 242.383 606.5 245.5C599.288 244.181 591.954 243.681 584.5 244C581.553 244.112 580.22 245.612 580.5 248.5C588.943 248.062 597.277 248.562 605.5 250C609.004 256.67 607.337 261.67 600.5 265C592.953 267.145 585.287 267.811 577.5 267C572.134 266.111 569.801 262.944 570.5 257.5C573.066 257.656 575.566 257.322 578 256.5C579.169 257.009 580.002 257.842 580.5 259C586.169 259.903 591.669 259.403 597 257.5C597.617 256.551 597.451 255.718 596.5 255C589.167 254.667 581.833 254.333 574.5 254C570.965 251.293 569.798 247.793 571 243.5C573.998 240.262 577.498 237.929 581.5 236.5Z" fill="#3E0DC3"/>
<path fill-rule="evenodd" clip-rule="evenodd" d="M559.5 238.5C562.5 238.5 565.5 238.5 568.5 238.5C568.5 248.5 568.5 258.5 568.5 268.5C565.421 268.26 562.421 268.593 559.5 269.5C558.193 259.106 558.193 248.773 559.5 238.5Z" fill="#4B1EC6"/>
<path fill-rule="evenodd" clip-rule="evenodd" d="M523.5 272.5C523.5 262.5 523.5 252.5 523.5 242.5C532.478 241.372 541.478 240.872 550.5 241C556.777 243.389 558.943 247.889 557 254.5C555.871 257.265 554.371 259.765 552.5 262C553.701 264.234 555.035 266.401 556.5 268.5C553.354 269.289 550.187 269.955 547 270.5C544.819 268.644 542.985 266.477 541.5 264C538.518 263.502 535.518 263.335 532.5 263.5C532.5 266.167 532.5 268.833 532.5 271.5C529.455 271.508 526.455 271.841 523.5 272.5Z" fill="#3B09C3"/>
<path fill-rule="evenodd" clip-rule="evenodd" d="M523.5 242.5C523.5 252.5 523.5 262.5 523.5 272.5C522.833 272.5 522.167 272.5 521.5 272.5C521.5 272.167 521.5 271.833 521.5 271.5C522.167 261.833 522.833 252.167 523.5 242.5Z" fill="#9B80E1"/>
<path fill-rule="evenodd" clip-rule="evenodd" d="M521.5 271.5C521.5 271.833 521.5 272.167 521.5 272.5C518.781 272.397 516.115 272.731 513.5 273.5C512.558 273.392 511.725 273.059 511 272.5C510.691 271.234 510.191 270.067 509.5 269C504.467 268.171 499.467 268.338 494.5 269.5C492.552 275.105 488.552 277.105 482.5 275.5C485.82 265.188 489.986 255.188 495 245.5C498.951 244.769 502.951 244.102 507 243.5C512.613 252.393 517.447 261.726 521.5 271.5Z" fill="#3E0CC3"/>
<path fill-rule="evenodd" clip-rule="evenodd" d="M471.5 246.5C483.039 245.873 487.539 251.207 485 262.5C483.437 265.728 480.937 267.895 477.5 269C472.146 269.391 466.812 269.891 461.5 270.5C461.5 273.167 461.5 275.833 461.5 278.5C458.167 278.5 454.833 278.5 451.5 278.5C451.5 268.5 451.5 258.5 451.5 248.5C458.386 248.603 465.053 247.936 471.5 246.5Z" fill="#400FC4"/>
<path fill-rule="evenodd" clip-rule="evenodd" d="M541.5 248.5C546.5 247.5 548.5 249.5 547.5 254.5C542.537 255.254 537.537 255.587 532.5 255.5C532.5 253.5 532.5 251.5 532.5 249.5C535.713 249.81 538.713 249.477 541.5 248.5Z" fill="#F7F4FC"/>
<path fill-rule="evenodd" clip-rule="evenodd" d="M501.5 252.5C503.625 255.088 504.958 258.088 505.5 261.5C502.813 261.664 500.146 261.497 497.5 261C498.703 258.095 500.036 255.262 501.5 252.5Z" fill="#F3EFFB"/>
<path opacity="0.959" fill-rule="evenodd" clip-rule="evenodd" d="M418.5 265.5C293.575 276.796 168.575 287.796 43.5 298.5C43.5 294.833 43.5 291.167 43.5 287.5C165.812 276.714 288.145 266.047 410.5 255.5C412.759 255.532 414.925 255.866 417 256.5C418.289 259.351 418.789 262.351 418.5 265.5Z" fill="#0AFA69"/>
<path fill-rule="evenodd" clip-rule="evenodd" d="M461.501 255.5C466.501 255.5 471.501 255.5 476.501 255.5C476.823 257.722 476.156 259.556 474.501 261C470.446 261.232 466.446 261.732 462.501 262.5C461.527 260.257 461.193 257.924 461.501 255.5Z" fill="#F7F4FC"/>
<path opacity="0.929" fill-rule="evenodd" clip-rule="evenodd" d="M33.5 278.5C30.272 279.414 26.9387 279.747 23.5 279.5C23.5 276.167 23.5 272.833 23.5 269.5C32.3254 265.983 35.6587 268.983 33.5 278.5Z" fill="#01FD67"/>
</svg>
