<svg width="467" height="130" viewBox="0 0 467 130" fill="none" xmlns="http://www.w3.org/2000/svg">
<path d="M133.733 2.3502C124.133 5.81687 116.533 11.4169 110.533 19.2835C103.2 29.0169 100.933 35.9502 100.933 49.4169C100.8 59.6835 101.2 61.6835 105.067 69.6835C110.4 80.3502 120.8 90.3502 131.333 94.7502C138.4 97.6835 138.667 97.9502 138.667 102.884V107.95H150H161.333V102.75C161.333 97.6835 161.467 97.5502 169.333 94.7502C179.467 91.0169 190 81.0169 195.467 69.9502C198.933 62.7502 199.333 60.6169 199.333 49.2835C199.333 38.3502 198.8 35.5502 195.733 29.0169C191.067 18.8835 183.067 10.6169 173.067 5.1502C165.6 1.28354 163.333 0.750202 152.667 0.350202C143.467 -0.0497983 139.067 0.483535 133.733 2.3502ZM164.667 27.5502C178.667 37.4169 179.6 58.7502 166.533 69.8169L162 73.6835L161.6 67.5502L161.2 61.2835H150H138.8L138.4 67.5502L138 73.9502L132.533 68.4835C118.267 54.0835 123.2 31.1502 142 24.0835C148.4 21.8169 158.533 23.4169 164.667 27.5502Z" fill="black"/>
<path d="M234.001 2.61649C219.201 8.34982 209.334 22.4832 209.334 37.9498V46.2165L238.001 55.9498C255.601 61.8165 266.667 66.2165 266.667 67.2832C266.667 70.2165 259.067 75.6832 253.467 76.6165C246.934 77.6832 237.334 73.8165 234.134 68.8832L231.867 65.6832L222.934 67.5498C208.934 70.3498 209.334 70.2165 210.934 74.6165C213.334 81.6832 223.201 91.2832 232.134 95.2832C239.601 98.6165 241.467 98.8832 252.534 98.3498C265.467 97.6832 271.467 95.5498 279.867 88.4832C287.867 81.8165 293.201 66.8832 291.334 56.2165L290.534 51.2832L262.001 41.4165C235.334 32.3498 233.467 31.5498 234.801 29.0165C238.934 21.4165 253.334 18.7498 261.334 24.2165C264.934 26.7498 267.867 30.2165 268.801 32.8832C268.801 33.1498 273.867 32.2165 279.867 31.0165C290.667 28.8832 290.801 28.7498 290.001 25.4165C287.734 16.2165 278.267 6.88316 266.667 2.48316C257.734 -0.850176 242.934 -0.850176 234.001 2.61649Z" fill="black"/>
<path d="M5.33398 19.2832V37.2832H16.6673H28.0007V31.2832V25.2832H38.6673C44.534 25.2832 49.334 25.5499 49.334 25.9499C49.334 26.3499 38.534 42.2165 25.334 61.1499C12.134 80.2165 1.33398 96.0832 1.33398 96.4832C1.33398 96.8832 21.4673 97.2832 46.0007 97.2832H90.6673V79.2832V61.2832H79.334H68.0007V67.2832V73.2832H56.534H45.0673L47.334 69.5499C48.6673 67.5499 59.334 52.2165 71.0673 35.2832C82.6673 18.4832 92.534 3.94986 92.934 3.01653C93.4673 1.6832 85.0673 1.2832 49.4673 1.2832H5.33398V19.2832Z" fill="black"/>
<path d="M305.334 49.4165V97.5498L331.067 97.0165C356.534 96.6165 356.667 96.6165 365.601 92.3498C376.401 87.2831 384.534 79.4165 389.201 69.4165C392.134 63.0165 392.667 60.2165 392.667 49.2831C392.667 34.0831 390.267 27.6831 380.401 17.1498C368.401 4.34981 357.867 1.28314 325.067 1.28314H305.334V49.4165ZM355.867 27.9498C368.934 34.6165 373.067 50.2165 364.934 62.6165C360.001 69.9498 352.267 73.2831 339.601 73.2831H329.334V49.2831V25.2831H340.001C348.134 25.2831 352.001 25.9498 355.867 27.9498Z" fill="black"/>
<path d="M423.2 45.2829C419.466 46.7495 416 51.6829 416 55.5495C416 57.9495 415.2 58.6162 412.533 58.6162C409.466 58.6162 409.2 59.0162 409.6 62.8829C409.866 66.2162 410.666 67.4162 412.933 67.6829C415.733 68.0829 415.866 68.8829 416.266 80.3495L416.666 92.6162H423.333H430L430.4 80.3495C430.8 68.0829 430.8 68.0829 434.4 67.6829C437.333 67.4162 438.133 66.4829 438.4 62.8829C438.8 58.8829 438.533 58.6162 434.8 58.6162C431.866 58.6162 430.666 57.9495 430.666 56.4829C430.666 54.8829 431.466 54.4829 434 55.1495C437.066 55.9495 437.333 55.6829 437.333 50.7495C437.333 46.4829 436.8 45.4162 434.4 44.7495C430.266 43.6829 426.666 43.8162 423.2 45.2829Z" fill="black"/>
<path d="M457.601 57.9503C455.334 59.017 453.334 60.617 453.201 61.5503C453.201 62.4837 452.534 61.9503 451.734 60.217C450.534 57.9503 449.067 57.2837 445.067 57.2837H439.867L440.267 74.8837L440.667 92.617L447.067 93.017L453.334 93.417V83.5503C453.334 75.417 453.734 73.2837 456.001 71.2837C458.134 69.2837 458.934 69.1503 460.667 70.617C463.601 73.017 465.334 70.8837 466.267 64.217C467.201 57.417 464.267 55.2837 457.601 57.9503Z" fill="black"/>
<path d="M393.334 87.2832V93.2832H398.667H404.001V87.2832V81.2832H398.667H393.334V87.2832Z" fill="black"/>
<path d="M0 119.283V129.283H45.3333H90.6667V119.283V109.283H45.3333H0V119.283Z" fill="#C23C3D"/>
</svg>
