<svg width="33" height="34" viewBox="0 0 33 34" fill="none" xmlns="http://www.w3.org/2000/svg">
<path fill-rule="evenodd" clip-rule="evenodd" d="M4.89661 0.805664H27.7446C30.4486 0.805664 32.6406 2.99768 32.6406 5.70166V28.5497C32.6406 31.2536 30.4486 33.4457 27.7446 33.4457H4.89661C2.19262 33.4457 0.000610352 31.2536 0.000610352 28.5497V5.70166C0.000610352 2.99768 2.19262 0.805664 4.89661 0.805664ZM20.9248 24.244L22.3263 25.7664C26.998 25.7055 28.7999 22.8434 28.7999 22.8434C28.7999 16.5103 25.7299 11.4559 25.7299 11.4559C22.5933 9.4464 19.7235 9.4464 19.7235 9.4464L19.3898 9.68998C22.9269 10.5425 25.196 12.1867 25.1293 12.2476C21.4587 9.68998 12.1154 9.4464 7.57721 12.2476C7.57721 12.2476 9.24566 10.6643 13.1165 9.68998L12.9162 9.4464C12.9162 9.4464 10.0465 9.4464 6.90983 11.4559C6.90983 11.4559 3.83988 16.5103 3.83988 22.8434C3.83988 22.8434 5.64181 25.7055 10.3135 25.7664L11.8484 24.244C9.04544 23.4524 8.11111 21.8691 8.11111 21.8691C11.7817 24.9748 21.2585 24.853 24.7289 21.8691C24.7289 21.8691 23.6611 23.5742 20.9248 24.244Z" fill="white"/>
<path d="M12.4824 20.966C13.5428 20.966 14.4024 19.8915 14.4024 18.566C14.4024 17.2405 13.5428 16.166 12.4824 16.166C11.422 16.166 10.5624 17.2405 10.5624 18.566C10.5624 19.8915 11.422 20.966 12.4824 20.966Z" fill="white"/>
<path d="M20.1578 20.966C21.2182 20.966 22.0778 19.8915 22.0778 18.566C22.0778 17.2405 21.2182 16.166 20.1578 16.166C19.0974 16.166 18.2378 17.2405 18.2378 18.566C18.2378 19.8915 19.0974 20.966 20.1578 20.966Z" fill="white"/>
</svg>
