<svg width="27" height="26" viewBox="0 0 27 26" fill="none" xmlns="http://www.w3.org/2000/svg">
<path d="M14.4251 1.77806L22.3659 5.82988C23.2929 6.30316 23.2929 7.65377 22.3659 8.12706L14.4251 12.1789C13.7176 12.5367 12.8881 12.5367 12.1807 12.1789L4.23984 8.12706C3.3128 7.65377 3.3128 6.30316 4.23984 5.82988L12.1807 1.77806C12.8881 1.42021 13.7176 1.42021 14.4251 1.77806ZM3.06884 10.8629L10.4486 14.3606C11.3634 14.7993 11.9489 15.6881 11.9489 16.6578V23.2607C11.9489 24.2189 10.8877 24.8307 9.98504 24.4036L2.60532 20.9058C2.15566 20.6912 1.77752 20.363 1.51273 19.9576C1.24793 19.5521 1.10681 19.0853 1.10498 18.6087V12.0057C1.10498 11.0476 2.1662 10.4358 3.06884 10.8629ZM23.5369 10.8629L16.1572 14.3606C15.2423 14.7993 14.6568 15.6881 14.6568 16.6578V23.2607C14.6568 24.2189 15.7181 24.8307 16.6207 24.4036L24.0004 20.9058C24.9153 20.4672 25.5008 19.5783 25.5008 18.6087V12.0057C25.5008 11.0476 24.4395 10.4358 23.5369 10.8629Z" stroke="white" stroke-width="1.73154" stroke-linecap="round" stroke-linejoin="round"/>
</svg>
