<svg width="31" height="23" viewBox="0 0 31 23" fill="none" xmlns="http://www.w3.org/2000/svg">
<path d="M15.4529 22.4753C16.7539 22.4753 17.8086 21.4772 17.8086 20.246C17.8086 19.0147 16.7539 18.0166 15.4529 18.0166C14.1519 18.0166 13.0972 19.0147 13.0972 20.246C13.0972 21.4772 14.1519 22.4753 15.4529 22.4753Z" fill="white"/>
<path d="M15.4608 14.0176C17.6087 14.0176 19.514 15.0011 20.7265 16.5092L21.7658 15.5257C20.2762 13.7553 18.0244 12.6406 15.4608 12.6406C12.8972 12.6406 10.6454 13.7881 9.15576 15.5257L10.1951 16.5092C11.3729 15.0011 13.3129 14.0176 15.4608 14.0176Z" fill="white"/>
<path d="M15.4469 6.80273C11.1858 6.80273 7.37508 8.57312 4.77686 11.3926L5.81615 12.3762C8.13723 9.81894 11.6015 8.21248 15.4469 8.21248C19.2923 8.21248 22.722 9.81894 25.0777 12.3762L26.117 11.3926C23.4841 8.6059 19.6734 6.80273 15.4469 6.80273Z" fill="white"/>
<path d="M15.4519 1.95174C21.1333 1.95174 26.2258 4.27947 29.7594 7.95138L30.7987 6.96783C26.988 3.03364 21.5144 0.541992 15.4519 0.541992C9.38932 0.541992 3.91572 3.00086 0.10498 6.96783L1.14427 7.95138C4.67786 4.24668 9.7704 1.95174 15.4519 1.95174Z" fill="white"/>
</svg>
