<svg width="33" height="34" viewBox="0 0 33 34" fill="none" xmlns="http://www.w3.org/2000/svg">
<path d="M18.1965 0.807694C19.4006 0.803074 20.6046 0.815175 21.8083 0.843993L22.1283 0.855543C22.4979 0.868742 22.8626 0.885242 23.3031 0.905041C25.0586 0.987538 26.2565 1.26473 27.3075 1.67227C28.3965 2.09135 29.3139 2.65893 30.2312 3.5763C31.07 4.40062 31.7192 5.39775 32.1336 6.49835C32.5411 7.54936 32.8183 8.74887 32.9008 10.5044C32.9206 10.9433 32.9371 11.3096 32.9503 11.6792L32.9602 11.9993C32.9895 13.2024 33.0022 14.4059 32.9982 15.6093L32.9998 16.8402V19.0016C33.0039 20.2057 32.9912 21.4097 32.9619 22.6134L32.952 22.9334C32.9388 23.303 32.9223 23.6677 32.9025 24.1082C32.82 25.8637 32.5395 27.0616 32.1336 28.1126C31.7205 29.2144 31.0712 30.2123 30.2312 31.0363C29.4062 31.875 28.4085 32.5242 27.3075 32.9387C26.2565 33.3462 25.0586 33.6234 23.3031 33.7059C22.8626 33.7257 22.4979 33.7422 22.1283 33.7554L21.8083 33.7653C20.6046 33.7947 19.4006 33.8073 18.1965 33.8033L16.9657 33.8049H14.8059C13.6019 33.809 12.3978 33.7963 11.1942 33.767L10.8741 33.7571C10.4824 33.7429 10.0908 33.7264 9.69932 33.7076C7.94378 33.6251 6.74592 33.3446 5.69326 32.9387C4.59222 32.5251 3.59492 31.8758 2.77121 31.0363C1.93146 30.2118 1.28168 29.2141 0.867173 28.1126C0.459636 27.0616 0.182446 25.8637 0.0999485 24.1082C0.081573 23.7167 0.0650734 23.3251 0.0504503 22.9334L0.0422008 22.6134C0.0117817 21.4097 -0.00196929 20.2057 0.000952019 19.0016V15.6093C-0.00365292 14.4059 0.00844796 13.2024 0.0372509 11.9993L0.0488005 11.6792C0.062 11.3096 0.0784994 10.9433 0.0982987 10.5044C0.180796 8.74722 0.457986 7.55101 0.865522 6.49835C1.28027 5.39721 1.93133 4.40036 2.77286 3.57795C3.59601 2.73772 4.59268 2.08735 5.69326 1.67227C6.74592 1.26473 7.94213 0.987538 9.69932 0.905041L10.8741 0.855543L11.1942 0.847293C12.3973 0.816889 13.6008 0.803138 14.8042 0.806044L18.1965 0.807694ZM16.5004 9.05741C15.4073 9.04195 14.3221 9.2439 13.3077 9.6515C12.2934 10.0591 11.3701 10.6643 10.5917 11.4318C9.81324 12.1993 9.1951 13.1139 8.77319 14.1223C8.35127 15.1308 8.134 16.2131 8.134 17.3063C8.134 18.3995 8.35127 19.4818 8.77319 20.4903C9.1951 21.4988 9.81324 22.4133 10.5917 23.1808C11.3701 23.9484 12.2934 24.5535 13.3077 24.9611C14.3221 25.3687 15.4073 25.5707 16.5004 25.5552C18.6884 25.5552 20.7867 24.686 22.3338 23.1389C23.8809 21.5918 24.7501 19.4934 24.7501 17.3055C24.7501 15.1175 23.8809 13.0192 22.3338 11.472C20.7867 9.92493 18.6884 9.05741 16.5004 9.05741ZM16.5004 12.3573C17.1579 12.3452 17.8112 12.4642 18.4222 12.7074C19.0332 12.9506 19.5896 13.3132 20.059 13.7739C20.5283 14.2345 20.9011 14.7841 21.1556 15.3905C21.4101 15.9968 21.5413 16.6478 21.5414 17.3055C21.5415 17.9631 21.4106 18.6141 21.1563 19.2206C20.9019 19.8271 20.5293 20.3768 20.0601 20.8376C19.591 21.2984 19.0347 21.6611 18.4238 21.9045C17.8129 22.148 17.1596 22.2672 16.502 22.2553C15.1893 22.2553 13.9303 21.7338 13.002 20.8055C12.0737 19.8773 11.5522 18.6183 11.5522 17.3055C11.5522 15.9927 12.0737 14.7337 13.002 13.8054C13.9303 12.8771 15.1893 12.3557 16.502 12.3557L16.5004 12.3573ZM25.1626 6.5825C24.6303 6.6038 24.1269 6.83024 23.7578 7.21438C23.3888 7.59852 23.1826 8.11057 23.1826 8.64328C23.1826 9.17599 23.3888 9.68804 23.7578 10.0722C24.1269 10.4563 24.6303 10.6828 25.1626 10.7041C25.7096 10.7041 26.2342 10.4868 26.621 10.1C27.0077 9.71321 27.225 9.18862 27.225 8.64163C27.225 8.09464 27.0077 7.57005 26.621 7.18327C26.2342 6.79649 25.7096 6.5792 25.1626 6.5792V6.5825Z" fill="white"/>
</svg>
