<svg width="29" height="42" viewBox="0 0 29 42" fill="none" xmlns="http://www.w3.org/2000/svg">
<path d="M26.1641 17.9607H21.8744V12.1781C21.8744 10.2204 21.0979 8.34278 19.7157 6.95843C18.3335 5.57408 16.4588 4.79636 14.504 4.79636C12.5493 4.79636 10.6746 5.57408 9.29242 6.95843C7.91022 8.34278 7.1337 10.2204 7.1337 12.1781V17.9607H2.84399V12.1781C2.84399 10.6445 3.14559 9.12596 3.73156 7.70911C4.31753 6.29225 5.17641 5.00486 6.25914 3.92045C7.34188 2.83603 8.62727 1.97583 10.0419 1.38894C11.4566 0.802064 12.9728 0.5 14.504 0.5C16.0353 0.5 17.5515 0.802064 18.9662 1.38894C20.3808 1.97583 21.6662 2.83603 22.7489 3.92045C23.8317 5.00486 24.6906 6.29225 25.2765 7.70911C25.8625 9.12596 26.1641 10.6445 26.1641 12.1781V17.9607Z" fill="#EDEBEB"/>
<path d="M0.000743713 19.0537V39.7017C-9.33249e-05 39.9376 0.0456145 40.1715 0.135243 40.3897C0.224872 40.6079 0.356655 40.8062 0.523028 40.9733C0.689401 41.1404 0.887085 41.2729 1.10473 41.3633C1.32238 41.4536 1.5557 41.5 1.7913 41.4998H27.2118C27.686 41.4998 28.1407 41.3112 28.4762 40.9756C28.8116 40.6399 29.0003 40.1846 29.0007 39.7096V19.0537H0.000743713ZM16.5463 31.6341V33.6931C16.5574 33.9822 16.5102 34.2705 16.4074 34.5409C16.3046 34.8112 16.1484 35.058 15.9481 35.2664C15.7479 35.4749 15.5077 35.6407 15.2419 35.754C14.9761 35.8672 14.6903 35.9256 14.4014 35.9256C14.1126 35.9256 13.8268 35.8672 13.561 35.754C13.2952 35.6407 13.055 35.4749 12.8548 35.2664C12.6545 35.058 12.4983 34.8112 12.3955 34.5409C12.2927 34.2705 12.2455 33.9822 12.2566 33.6931V31.537C11.6612 31.072 11.2272 30.431 11.0163 29.7049C10.8053 28.9789 10.8282 28.2047 11.0816 27.4924C11.3349 26.78 11.806 26.1658 12.4277 25.7368C13.0495 25.3079 13.7904 25.0861 14.5453 25.1029C15.3001 25.1197 16.0304 25.3742 16.6326 25.8304C17.2347 26.2866 17.678 26.9212 17.8996 27.6441C18.1211 28.367 18.1096 29.1414 17.8667 29.8574C17.6237 30.5734 17.1617 31.1945 16.5463 31.6325V31.6341Z" fill="#EDEBEB"/>
</svg>
