<svg width="138" height="21" viewBox="0 0 138 21" fill="none" xmlns="http://www.w3.org/2000/svg">
<path d="M30.0978 20.6322V0.286558H41.8753V4.44165H34.6254V8.33883H40.7004V12.4366H34.6254V16.4771H42.1332V20.6322H30.0978Z" fill="white"/>
<path d="M50.9885 20.9187C47.4065 20.9187 44.455 18.7982 43.6813 15.818L47.3492 14.1273C47.9223 15.5028 49.0113 16.8209 50.9312 16.8209C52.278 16.8209 53.5102 16.1619 53.5102 14.5858C53.5102 13.3822 52.8511 12.8091 50.9025 12.0354L49.6417 11.5483C46.9194 10.4594 44.4263 8.96926 44.4263 5.67384C44.4263 2.14918 47.3779 0 50.9025 0C54.4845 0 56.6337 2.17784 57.608 4.32702L54.2553 6.2183C53.3669 4.67089 52.3353 4.01181 51.0745 4.01181C49.8423 4.01181 48.8966 4.58493 48.8966 5.73116C48.8966 6.61949 49.4124 7.30722 51.533 8.1669L52.9085 8.71136C56.5764 10.1728 58.2098 11.8348 58.2098 14.6431C58.2098 18.8842 54.4272 20.9187 50.9885 20.9187Z" fill="white"/>
<path d="M60.1808 20.6322V0.286558H67.6313C72.0442 0.286558 75.0245 3.00886 75.0245 7.33588C75.0245 11.5769 72.0442 14.3279 67.6313 14.3279H64.7084V20.6322H60.1808ZM64.7084 10.1728H67.2014C69.0354 10.1728 70.4395 9.51372 70.4395 7.33588C70.4395 5.15804 69.0354 4.44165 67.2014 4.44165H64.7084V10.1728Z" fill="white"/>
<path d="M80.5964 0.286558H85.4106L93.1763 20.6322H88.2762L87.13 17.3941H78.8771L77.7309 20.6322H72.8307L80.5964 0.286558ZM80.3958 13.2103H85.6112L83.0035 5.87443L80.3958 13.2103Z" fill="white"/>
<path d="M96.298 20.6322L89.9078 0.286558H94.6646L98.3612 12.8664L102.402 0.286558H105.984L109.995 12.8664L113.692 0.286558H118.449L112.087 20.6322H108.505L104.178 7.909L99.88 20.6322H96.298Z" fill="white"/>
<path d="M120.291 20.6322V0.286558H124.818L133.329 13.2103H133.472V0.286558H138V20.6322H133.472L124.962 7.7084H124.818V20.6322H120.291Z" fill="white"/>
<path d="M24.8351 10.423C23.7455 8.19667 22.7329 6.35594 21.9383 4.42134C21.3817 3.06678 21.7639 1.78263 23.0145 0.877361C24.1981 0.0190278 25.4353 0.0525564 26.5954 0.857244C27.846 1.72564 28.2484 3.05337 27.7085 4.40793C26.934 6.34924 25.9148 8.19331 24.8351 10.423Z" fill="white"/>
<path d="M7.42873 0.24366H0L10.2145 20.6727L13.9289 12.9344L7.42873 0.24366Z" fill="white"/>
<path d="M17.3338 0.24366H9.90505L20.1196 20.6727L23.8339 12.9344L17.3338 0.24366Z" fill="white"/>
</svg>
