<svg width="467" height="59" viewBox="0 0 467 59" fill="none" xmlns="http://www.w3.org/2000/svg">
<path d="M40.8807 10.8726L45.8471 21.6333L28.1098 59L0.912456 1.64917H16.7578L29.174 27.7822L37.9244 9.21712L38.9887 6.97038L40.8807 10.8726ZM59.9188 1.64917H75.8824L56.3713 42.5634L48.5669 59L47.3844 56.5168L40.6442 42.4451V42.2086L47.7391 27.3092H47.8574L48.5669 25.6537L59.9188 1.64917ZM97.0887 44.9284H130.79V59H83.0171V26.718L97.0887 40.9079V44.9284ZM130.79 37.5969H100.281L83.0171 20.2143V1.76742H130.79V15.9573H98.7442L106.076 23.407H130.79V37.5969ZM163.297 1.76742H199.836V15.9573H177.487L163.297 1.76742ZM199.127 36.0597C199.6 37.7152 199.836 39.4889 199.836 41.1444C199.836 42.9181 199.6 44.6919 199.008 46.3473C197.944 49.8948 195.697 53.2058 192.741 55.4525C189.548 57.8175 185.883 59 181.981 59H142.604V44.9284H181.981C183.991 44.9284 185.646 43.2729 185.646 41.1444C185.646 39.1341 183.991 37.4787 181.981 37.4787H160.459C158.685 37.4787 156.912 37.2422 155.256 36.7692C152.418 35.9414 149.817 34.4042 147.807 32.2757C145.678 30.1472 144.141 27.664 143.313 24.826C142.84 23.1705 142.604 21.3968 142.604 19.623C142.604 17.8493 142.84 16.1938 143.313 14.5383C144.141 11.7004 145.678 9.09887 147.807 6.97038C149.817 4.96015 152.418 3.42291 155.256 2.59517C155.729 2.35867 156.084 2.35867 156.439 2.24042L157.148 2.12217L170.983 15.9573H160.459C158.331 15.9573 156.675 17.6128 156.675 19.623C156.675 21.6333 158.331 23.2888 160.459 23.2888H181.981C182.099 23.2888 182.099 23.2888 182.217 23.2888C182.335 23.2888 182.335 23.2888 182.453 23.2888H182.572C182.808 23.2888 182.926 23.407 183.045 23.407C183.163 23.407 183.163 23.407 183.281 23.407C183.399 23.407 183.399 23.407 183.518 23.407H183.636C183.754 23.407 183.991 23.407 184.227 23.407V23.5253C184.345 23.5253 184.464 23.5253 184.582 23.5253C184.818 23.5253 184.937 23.5253 185.173 23.6435H185.291C185.528 23.6435 185.646 23.7618 185.764 23.7618H185.883C186.001 23.7618 186.237 23.88 186.356 23.88H186.474L186.592 23.9983C186.71 23.9983 186.71 23.9983 186.71 23.9983H186.829C186.947 23.9983 187.065 24.1165 187.302 24.1165C187.656 24.2348 187.893 24.353 188.248 24.4713C188.484 24.5895 188.721 24.5895 188.839 24.7078H188.957C189.194 24.826 189.312 24.9443 189.548 25.0625C189.667 25.0625 189.785 25.0625 189.785 25.1807C189.903 25.1807 190.021 25.299 190.258 25.299C190.494 25.5355 190.731 25.6537 190.967 25.772L191.322 26.0085C191.559 26.1267 191.677 26.245 191.913 26.3632C192.15 26.4815 192.268 26.5997 192.386 26.718L192.505 26.8362C192.859 27.0727 193.214 27.3092 193.569 27.5457C193.687 27.664 193.805 27.7822 193.924 27.9005C194.042 28.0187 194.042 28.137 194.16 28.137V28.2552C194.278 28.2552 194.278 28.2552 194.278 28.2552L194.397 28.3735C194.515 28.4917 194.515 28.4917 194.515 28.4917L194.633 28.61L194.751 28.7282C195.106 29.083 195.343 29.3195 195.579 29.556C195.579 29.6742 195.697 29.6742 195.697 29.7925L195.816 29.9107C195.934 30.029 195.934 30.029 195.934 30.1472H196.052C196.052 30.2655 196.052 30.2655 196.17 30.3837L196.289 30.502C196.407 30.6202 196.407 30.7385 196.525 30.8567V30.975C196.643 31.0932 196.762 31.0932 196.762 31.2115C196.88 31.3297 196.88 31.448 196.998 31.5662L197.116 31.6845C197.353 32.1574 197.589 32.6304 197.826 33.1034L197.944 33.2217C198.062 33.5764 198.299 33.8129 198.417 34.1677V34.4042C198.535 34.4042 198.535 34.4042 198.535 34.4042L198.772 35.1137C198.772 35.2319 198.772 35.2319 198.772 35.2319C198.89 35.3502 198.89 35.3502 198.89 35.4684L199.127 36.0597ZM258.131 14.7748C258.486 16.0756 258.604 17.3763 258.604 18.7953C258.604 22.5793 257.422 26.1267 255.057 29.083C254.584 29.556 254.229 30.1472 253.756 30.6202C250.563 33.6947 246.424 35.4684 241.931 35.4684H224.075L211.659 22.934V2.00392H241.931C246.424 2.00392 250.563 3.77766 253.756 6.97038C255.884 9.09887 257.422 11.8186 258.131 14.7748ZM242.995 21.7515C243.705 20.9238 244.059 19.8595 244.059 18.7953C244.059 18.3223 243.941 17.9676 243.941 17.6128C243.705 16.7851 243.232 15.9573 242.64 15.3661C241.694 14.4201 240.512 13.9471 239.211 13.9471H225.731V15.8391L233.535 23.6435H239.211C240.512 23.6435 241.694 23.1705 242.64 22.2245C242.759 22.1063 242.877 21.8698 242.995 21.7515ZM211.659 59V29.4377L225.731 43.6276V59H211.659ZM257.619 59L281.979 18.677L290.256 32.3939L274.174 59H257.619ZM292.976 0.703179L328.332 59H311.777L308.348 53.4423L284.698 14.3018L292.976 0.703179ZM367.336 10.8726L372.302 21.6333L354.565 59L327.368 1.64917H343.213L355.629 27.7822L364.38 9.21712L365.444 6.97038L367.336 10.8726ZM386.374 1.64917H402.338L382.827 42.5634L375.022 59L373.84 56.5168L367.1 42.4451V42.2086L374.194 27.3092H374.313L375.022 25.6537L386.374 1.64917ZM414.207 59V26.1267L428.279 40.3166V59H414.207ZM453.111 14.0653L466.946 0.111934V59H453.584L452.993 58.527L437.384 42.9181L428.279 33.8129L414.207 19.623V1.76742H416.335L416.69 2.12217L452.756 38.1882V14.3018L453.111 14.0653Z" fill="#FFFAF4"/>
</svg>
