<svg width="33" height="34" viewBox="0 0 33 34" fill="none" xmlns="http://www.w3.org/2000/svg">
<path fill-rule="evenodd" clip-rule="evenodd" d="M3.94998 0.805664H29.0512C31.2324 0.805664 33.0006 2.57386 33.0006 4.75504V29.8563C33.0006 32.0375 31.2324 33.8057 29.0512 33.8057H3.94999C1.76881 33.8057 0.000610352 32.0375 0.000610352 29.8563V4.75504C0.000610352 2.57386 1.76881 0.805664 3.94998 0.805664ZM11.9694 27.4664C9.17672 27.4664 6.57151 26.6603 4.37528 25.2674L4.3739 25.2671C8.66817 25.9083 11.6933 23.1755 11.6933 23.1755C7.86767 22.8779 7.11177 19.6942 7.11177 19.6942C8.46347 19.923 9.31075 19.6021 9.31075 19.6021C5.00482 18.5946 5.37108 14.6543 5.37108 14.6543C6.36825 15.2501 7.52408 15.2961 7.52408 15.2961C3.72184 11.9516 6.10431 8.69912 6.10431 8.69912C10.0907 13.5266 15.9504 13.8552 16.3352 13.8709C16.2507 13.5081 16.206 13.1302 16.206 12.7419C16.206 9.99043 18.4373 7.7598 21.1909 7.7598C22.6264 7.7598 23.9197 8.36588 24.8295 9.33692C25.0818 9.26617 25.3264 9.18985 25.56 9.11222C26.9715 8.64148 27.9796 8.10339 27.9796 8.10339C27.7363 9.56088 25.9394 10.7841 25.8109 10.87C25.8061 10.8734 25.8033 10.8748 25.8033 10.8748C25.8061 10.8748 25.8095 10.8741 25.8122 10.8741C27.2072 10.7346 28.6324 10.1423 28.6324 10.1423C28.2022 11.0466 26.4471 12.4533 26.1634 12.6767C26.1709 12.8705 26.175 13.0649 26.175 13.2608C26.175 21.1058 19.8151 27.4664 11.9694 27.4664Z" fill="white"/>
</svg>
