<svg width="9" height="15" viewBox="0 0 9 15" fill="none" xmlns="http://www.w3.org/2000/svg">
<path id="Vector" d="M4.49093 0.763672C6.97366 0.763672 9 2.79001 9 5.27274C9 5.34576 9 5.43704 9 5.51006L8.98174 5.87516C8.90872 6.25853 8.74443 6.91572 8.37932 7.84674C7.83166 9.19763 6.71808 11.37 4.47268 14.2361C3.41387 12.7757 0.328719 8.35789 0.0548887 6.03946V6.02121C0.0183781 5.78389 0.00012207 5.52831 0.00012207 5.27274C-0.0181333 2.79001 2.00821 0.763672 4.49093 0.763672ZM4.50919 7.28083C5.60451 7.28083 6.49902 6.38631 6.49902 5.29099C6.49902 4.19567 5.60451 3.30116 4.50919 3.30116C3.41387 3.30116 2.51936 4.19567 2.51936 5.29099C2.51936 6.38631 3.41387 7.28083 4.50919 7.28083Z" fill="#02FEF3"/>
</svg>
