<svg width="16" height="16" viewBox="0 0 16 16" fill="none" xmlns="http://www.w3.org/2000/svg">
<g id="Group">
<path id="Vector" d="M10.9268 7.60973C10.6732 7.60973 10.4 7.60973 10.1463 7.62924V2.92681H10.1268C10.1463 2.86827 10.1463 2.79022 10.1463 2.73168C10.1463 1.52193 7.51219 0.975586 5.07317 0.975586C2.63415 0.975586 0 1.52193 0 2.73168C0 2.79022 7.41424e-08 2.86827 0.0195123 2.92681H0V10.5366C0 11.7463 2.63415 12.2927 5.07317 12.2927C5.32683 12.2927 5.6 12.2927 5.85366 12.2731V13.2683C5.85366 14.478 8.4878 15.0244 10.9268 15.0244C13.3659 15.0244 16 14.478 16 13.2683V9.36583C16 8.15607 13.3659 7.60973 10.9268 7.60973ZM9.22927 7.70729C9.2878 7.68778 9.32683 7.66827 9.36585 7.62924V7.68778C9.32683 7.68778 9.26829 7.68778 9.22927 7.70729ZM5.07317 1.75607C7.86341 1.75607 9.36585 2.439 9.36585 2.73168C9.36585 3.02437 7.86341 3.70729 5.07317 3.70729C2.28293 3.70729 0.780488 3.02437 0.780488 2.73168C0.780488 2.439 2.28293 1.75607 5.07317 1.75607ZM0.780488 3.72681C1.73659 4.25363 3.45366 4.48778 5.07317 4.48778C6.69268 4.48778 8.40976 4.25363 9.36585 3.72681V4.6829C9.36585 4.97559 7.86341 5.65851 5.07317 5.65851C2.28293 5.65851 0.780488 4.97559 0.780488 4.6829V3.72681ZM0.780488 5.67802C1.73659 6.20485 3.45366 6.439 5.07317 6.439C6.69268 6.439 8.40976 6.20485 9.36585 5.67802V6.63412C9.36585 6.92681 7.86341 7.60973 5.07317 7.60973C2.28293 7.60973 0.780488 6.92681 0.780488 6.63412V5.67802ZM0.780488 7.62924C1.73659 8.15607 3.45366 8.39022 5.07317 8.39022C5.63902 8.39022 6.22439 8.3512 6.77073 8.29266C6.20488 8.56583 5.85366 8.91705 5.85366 9.36583V9.54144C5.6 9.56095 5.32683 9.56095 5.07317 9.56095C2.28293 9.56095 0.780488 8.87803 0.780488 8.58534V7.62924ZM5.07317 11.5122C2.28293 11.5122 0.780488 10.8292 0.780488 10.5366V9.58046C1.73659 10.1073 3.45366 10.3414 5.07317 10.3414C5.32683 10.3414 5.6 10.3414 5.85366 10.3219V11.4927C5.6 11.5122 5.32683 11.5122 5.07317 11.5122ZM10.9268 14.2439C8.13659 14.2439 6.63415 13.561 6.63415 13.2683V12.3122C7.59024 12.839 9.30732 13.0731 10.9268 13.0731C12.5463 13.0731 14.2634 12.839 15.2195 12.3122V13.2683C15.2195 13.561 13.7171 14.2439 10.9268 14.2439ZM10.9268 12.2927C8.13659 12.2927 6.63415 11.6097 6.63415 11.317V10.361C7.59024 10.8878 9.30732 11.1219 10.9268 11.1219C12.5463 11.1219 14.2634 10.8878 15.2195 10.361V11.317C15.2195 11.6097 13.7171 12.2927 10.9268 12.2927ZM10.9268 10.3414C8.13659 10.3414 6.63415 9.65851 6.63415 9.36583C6.63415 9.07315 8.13659 8.39022 10.9268 8.39022C13.7171 8.39022 15.2195 9.07315 15.2195 9.36583C15.2195 9.65851 13.7171 10.3414 10.9268 10.3414Z" fill="#DCFF03"/>
</g>
</svg>
